#!OML:ASF F:\VICON\USERDATA\INSTALL\Justin_Nancy\Justin_Nancy.ASF
:FULLY-SPECIFIED
:DEGREES
283
root 0.173198 17.326 2.39401 -0.520188 -6.03924 4.18397
lowerback 7.36886 2.34398 -3.47041
upperback 0.413031 2.8292 -0.0106056
thorax -3.8709 1.46321 1.63292
lowerneck -15.6367 -5.38007 -9.60161
upperneck 21.0265 -6.97944 8.11077
head 9.88749 -3.12387 3.50627
rclavicle 4.65653e-014 9.14409e-015
rhumerus -29.4428 -15.4154 -78.4856
rradius 33.4523
rwrist 4.84763
rhand -15.6458 14.0682
rfingers 7.12502
rthumb 10.5419 -15.6474
lclavicle 4.65653e-014 9.14409e-015
lhumerus -37.2668 12.9172 79.1135
lradius 21.4124
lwrist -13.964
lhand -10.414 25.2142
lfingers 7.12502
lthumb 15.585 54.6063
rfemur -5.91086 3.26874 17.5131
rtibia 66.5223
rfoot 16.3232 -0.208323
rtoes 14.0704
lfemur -21.8503 1.36793 -26.919
ltibia 31.121
lfoot -5.19484 0.646613
ltoes 3.68631
284
root 0.18002 17.3411 2.59212 -0.677934 -5.72423 4.3329
lowerback 7.31736 2.15288 -3.51529
upperback 0.445454 2.57169 -0.0661868
thorax -3.79319 1.33439 1.63196
lowerneck -15.5834 -5.32274 -9.57447
upperneck 21.0751 -6.90798 8.08423
head 9.88521 -3.09307 3.50413
rclavicle -2.3879e-014 1.59028e-014
rhumerus -29.5126 -15.699 -78.516
rradius 33.0223
rwrist 5.33437
rhand -15.6583 14.0671
rfingers 7.12502
rthumb 10.5298 -15.6492
lclavicle -2.3879e-014 1.59028e-014
lhumerus -37.1329 12.3297 79.3799
lradius 21.7003
lwrist -13.359
lhand -9.88407 26.0654
lfingers 7.12502
lthumb 16.0953 55.417
rfemur -7.4346 2.58108 17.203
rtibia 68.3781
rfoot 14.8101 -0.745116
rtoes 14.7369
lfemur -20.8052 1.17527 -27.2375
ltibia 30.9873
lfoot -5.78276 0.767924
ltoes 2.74201
285
root 0.183402 17.3539 2.7847 -0.797487 -5.31607 4.51158
lowerback 7.35481 1.97567 -3.65212
upperback 0.393725 2.31971 -0.123095
thorax -3.85684 1.21284 1.67511
lowerneck -15.5619 -5.29997 -9.55343
upperneck 21.3021 -6.88903 8.04313
head 9.95735 -3.08755 3.49231
rclavicle 2.08724e-015 -1.59028e-015
rhumerus -29.6381 -15.9907 -78.5066
rradius 32.5318
rwrist 5.60411
rhand -15.5582 13.6419
rfingers 7.12502
rthumb 10.6264 -16.0695
lclavicle 2.08724e-015 -1.59028e-015
lhumerus -37.1365 12.2727 79.3135
lradius 21.9923
lwrist -13.5825
lhand -9.08567 26.7713
lfingers 7.12502
lthumb 16.864 56.059
rfemur -8.96112 1.84945 16.9209
rtibia 70.0106
rfoot 13.2336 -1.26205
rtoes 15.5302
lfemur -19.7757 0.861842 -27.5653
ltibia 30.797
lfoot -6.29376 0.92446
ltoes 1.7769
286
root 0.187177 17.3647 2.96874 -0.941464 -5.03951 4.60645
lowerback 7.4605 1.86067 -3.73975
upperback 0.387924 2.15457 -0.121147
thorax -3.91593 1.1334 1.7412
lowerneck -15.4889 -5.32992 -9.66678
upperneck 21.3692 -6.93464 8.12822
head 9.97979 -3.11036 3.53724
rclavicle -6.63444e-015 -1.59028e-015
rhumerus -29.7849 -16.3832 -78.3967
rradius 32.1751
rwrist 5.99444
rhand -15.2756 12.8347
rfingers 7.12502
rthumb 10.8989 -16.8625
lclavicle -6.63444e-015 -1.59028e-015
lhumerus -36.7053 12.5608 79.2334
lradius 21.707
lwrist -14.2758
lhand -8.85275 27.1566
lfingers 7.12502
lthumb 17.0882 56.4251
rfemur -10.4166 1.3019 16.7535
rtibia 71.4425
rfoot 11.3623 -1.79116
rtoes 15.3077
lfemur -18.8132 0.589298 -27.7676
ltibia 30.6189
lfoot -6.78357 1.1328
ltoes 1.25547
287
root 0.194582 17.3723 3.15522 -1.08907 -4.80602 4.80883
lowerback 7.46228 1.73683 -3.88578
upperback 0.411635 1.9769 -0.143964
thorax -3.8859 1.04688 1.81969
lowerneck -15.3851 -5.33564 -9.74528
upperneck 21.3587 -6.93029 8.12237
head 9.95892 -3.11813 3.55029
rclavicle 1.76918e-014 -7.95139e-016
rhumerus -29.9295 -16.6556 -78.3062
rradius 31.9373
rwrist 6.37427
rhand -15.0183 12.267
rfingers 7.12502
rthumb 11.1471 -17.4169
lclavicle 1.76918e-014 -7.95139e-016
lhumerus -36.2205 12.7156 79.3289
lradius 21.5393
lwrist -14.6013
lhand -9.02361 27.5376
lfingers 7.12502
lthumb 16.9237 56.8202
rfemur -11.9272 0.715496 16.4042
rtibia 72.7256
rfoot 9.69754 -2.18205
rtoes 14.726
lfemur -17.8647 0.375678 -28.1271
ltibia 30.493
lfoot -7.32109 1.36875
ltoes 0.162553
288
root 0.198182 17.3782 3.34482 -1.28023 -4.6475 4.81466
lowerback 7.54693 1.66559 -3.89135
upperback 0.415479 1.87969 -0.0963515
thorax -3.92514 0.999762 1.88089
lowerneck -15.1764 -5.3422 -9.77571
upperneck 21.3144 -6.92574 8.02968
head 9.90109 -3.13388 3.52541
rclavicle -2.96189e-014 -5.1684e-015
rhumerus -30.2062 -17.0549 -78.1286
rradius 31.7071
rwrist 6.75024
rhand -15.1801 12.0847
rfingers 7.12502
rthumb 10.991 -17.6076
lclavicle -2.96189e-014 -5.1684e-015
lhumerus -35.8753 12.6681 79.526
lradius 21.5978
lwrist -14.6402
lhand -9.24038 27.7155
lfingers 7.12502
lthumb 16.715 57.0159
rfemur -13.3286 0.256487 16.3842
rtibia 73.7662
rfoot 8.18012 -2.58359
rtoes 13.9749
lfemur -16.8492 0.191801 -28.2498
ltibia 30.4162
lfoot -8.00092 1.69866
ltoes -0.00125901
289
root 0.19714 17.3786 3.52145 -1.30879 -4.38489 4.93685
lowerback 7.55465 1.55039 -4.03963
upperback 0.376009 1.71193 -0.109876
thorax -3.96403 0.920353 1.96814
lowerneck -15.1226 -5.31663 -9.7923
upperneck 21.3416 -6.89563 8.04136
head 9.89851 -3.1215 3.53794
rclavicle 1.02871e-014 -1.11319e-014
rhumerus -30.4906 -17.527 -78.0317
rradius 31.5609
rwrist 7.1199
rhand -15.2383 11.6512
rfingers 7.12502
rthumb 10.9349 -18.0441
lclavicle 1.02871e-014 -1.11319e-014
lhumerus -35.5111 12.612 79.6335
lradius 21.6499
lwrist -14.8651
lhand -9.44253 27.7735
lfingers 7.12502
lthumb 16.5204 57.0902
rfemur -14.9238 -0.195705 16.2937
rtibia 74.6458
rfoot 6.66534 -3.05151
rtoes 14.0224
lfemur -16.1292 -0.069495 -28.4693
ltibia 30.3969
lfoot -8.71512 1.93788
ltoes 0.850767
290
root 0.199396 17.3781 3.69019 -1.32003 -4.08152 5.23434
lowerback 7.65733 1.4307 -4.28036
upperback 0.281677 1.51984 -0.219848
thorax -4.11085 0.832561 2.00725
lowerneck -15.2148 -5.31625 -9.68115
upperneck 21.5924 -6.9135 7.96578
head 9.99961 -3.12673 3.492
rclavicle -9.61621e-015 -8.34896e-015
rhumerus -30.7871 -18.1069 -77.8782
rradius 31.1369
rwrist 7.72239
rhand -14.9661 11.9449
rfingers 7.12502
rthumb 11.1975 -17.7363
lclavicle -9.61621e-015 -8.34896e-015
lhumerus -35.3103 12.4002 79.6655
lradius 21.7741
lwrist -15.2425
lhand -9.73565 26.9532
lfingers 7.12502
lthumb 16.2382 56.2931
rfemur -16.5821 -0.714272 15.9541
rtibia 75.3199
rfoot 5.10834 -3.31937
rtoes 12.8905
lfemur -15.5162 -0.359037 -28.9158
ltibia 30.4921
lfoot -9.33918 2.21467
ltoes 0.547322
291
root 0.198469 17.3765 3.85711 -1.29496 -3.88025 5.17576
lowerback 7.8298 1.31709 -4.25791
upperback 0.110677 1.35953 -0.176528
thorax -4.37573 0.760624 2.05271
lowerneck -15.0531 -5.28482 -9.54759
upperneck 21.7527 -6.87635 7.75193
head 10.0089 -3.12611 3.4033
rclavicle -3.15571e-015 -4.37326e-015
rhumerus -31.1104 -18.4561 -77.707
rradius 30.6523
rwrist 8.11924
rhand -14.8168 11.9135
rfingers 7.12502
rthumb 11.3414 -17.7598
lclavicle -3.15571e-015 -4.37326e-015
lhumerus -35.1528 12.3365 79.6717
lradius 21.6358
lwrist -15.6498
lhand -10.2932 26.1467
lfingers 7.12502
lthumb 15.7012 55.5297
rfemur -18.1967 -1.10072 16.0906
rtibia 75.7756
rfoot 3.68064 -3.5618
rtoes 12.1697
lfemur -14.9213 -0.61556 -28.9315
ltibia 30.5206
lfoot -9.80427 2.46169
ltoes 0.620346
292
root 0.193182 17.3748 4.03016 -1.30032 -3.72706 4.87687
lowerback 7.88198 1.22079 -4.08665
upperback 0.0654917 1.24984 -0.032584
thorax -4.44403 0.706222 2.11786
lowerneck -15.2426 -5.24558 -9.46808
upperneck 22.11 -6.81781 7.63488
head 10.1594 -3.10092 3.35853
rclavicle 2.60905e-015 -5.1684e-015
rhumerus -31.3879 -18.576 -77.6295
rradius 30.516
rwrist 8.00254
rhand -14.7979 11.4366
rfingers 7.12502
rthumb 11.3597 -18.2357
lclavicle 2.60905e-015 -5.1684e-015
lhumerus -34.5971 12.3168 79.8323
lradius 21.3926
lwrist -15.8652
lhand -10.2213 26.6864
lfingers 7.12502
lthumb 15.7705 56.0639
rfemur -19.64 -1.36348 16.5692
rtibia 75.9687
rfoot 2.20426 -3.78275
rtoes 12.1807
lfemur -14.257 -0.820191 -28.6665
ltibia 30.4816
lfoot -10.1128 2.73217
ltoes 0.31707
